<?xml version="1.0" standalone="no"?>
<svg xmlns="http://www.w3.org/2000/svg" width="1024" height="1331" viewBox="0 0 1000 1300"><defs><clipPath id="clip-path-dot-color"><rect x="181" y="515" width="22" height="22" transform="rotate(0,192,526)"/><rect x="181" y="537" width="22" height="22" transform="rotate(0,192,548)"/><rect x="181" y="559" width="22" height="22" transform="rotate(0,192,570)"/><rect x="181" y="581" width="22" height="22" transform="rotate(0,192,592)"/><rect x="181" y="603" width="22" height="22" transform="rotate(0,192,614)"/><rect x="181" y="735" width="22" height="22" transform="rotate(0,192,746)"/><rect x="203" y="515" width="22" height="22" transform="rotate(0,214,526)"/><rect x="203" y="537" width="22" height="22" transform="rotate(0,214,548)"/><rect x="203" y="603" width="22" height="22" transform="rotate(0,214,614)"/><rect x="203" y="625" width="22" height="22" transform="rotate(0,214,636)"/><rect x="203" y="647" width="22" height="22" transform="rotate(0,214,658)"/><rect x="203" y="669" width="22" height="22" transform="rotate(0,214,680)"/><rect x="203" y="735" width="22" height="22" transform="rotate(0,214,746)"/><rect x="225" y="515" width="22" height="22" transform="rotate(0,236,526)"/><rect x="225" y="537" width="22" height="22" transform="rotate(0,236,548)"/><rect x="225" y="581" width="22" height="22" transform="rotate(0,236,592)"/><rect x="225" y="625" width="22" height="22" transform="rotate(0,236,636)"/><rect x="225" y="691" width="22" height="22" transform="rotate(0,236,702)"/><rect x="225" y="735" width="22" height="22" transform="rotate(0,236,746)"/><rect x="225" y="757" width="22" height="22" transform="rotate(0,236,768)"/><rect x="247" y="515" width="22" height="22" transform="rotate(0,258,526)"/><rect x="247" y="559" width="22" height="22" transform="rotate(0,258,570)"/><rect x="247" y="603" width="22" height="22" transform="rotate(0,258,614)"/><rect x="247" y="625" width="22" height="22" transform="rotate(0,258,636)"/><rect x="247" y="647" width="22" height="22" transform="rotate(0,258,658)"/><rect x="247" y="669" width="22" height="22" transform="rotate(0,258,680)"/><rect x="247" y="735" width="22" height="22" transform="rotate(0,258,746)"/><rect x="269" y="515" width="22" height="22" transform="rotate(0,280,526)"/><rect x="269" y="537" width="22" height="22" transform="rotate(0,280,548)"/><rect x="269" y="581" width="22" height="22" transform="rotate(0,280,592)"/><rect x="269" y="625" width="22" height="22" transform="rotate(0,280,636)"/><rect x="269" y="647" width="22" height="22" transform="rotate(0,280,658)"/><rect x="269" y="691" width="22" height="22" transform="rotate(0,280,702)"/><rect x="269" y="757" width="22" height="22" transform="rotate(0,280,768)"/><rect x="291" y="537" width="22" height="22" transform="rotate(0,302,548)"/><rect x="291" y="625" width="22" height="22" transform="rotate(0,302,636)"/><rect x="291" y="669" width="22" height="22" transform="rotate(0,302,680)"/><rect x="291" y="713" width="22" height="22" transform="rotate(0,302,724)"/><rect x="291" y="757" width="22" height="22" transform="rotate(0,302,768)"/><rect x="313" y="515" width="22" height="22" transform="rotate(0,324,526)"/><rect x="313" y="559" width="22" height="22" transform="rotate(0,324,570)"/><rect x="313" y="603" width="22" height="22" transform="rotate(0,324,614)"/><rect x="313" y="647" width="22" height="22" transform="rotate(0,324,658)"/><rect x="313" y="691" width="22" height="22" transform="rotate(0,324,702)"/><rect x="313" y="735" width="22" height="22" transform="rotate(0,324,746)"/><rect x="313" y="779" width="22" height="22" transform="rotate(0,324,790)"/><rect x="335" y="515" width="22" height="22" transform="rotate(0,346,526)"/><rect x="335" y="537" width="22" height="22" transform="rotate(0,346,548)"/><rect x="335" y="581" width="22" height="22" transform="rotate(0,346,592)"/><rect x="335" y="625" width="22" height="22" transform="rotate(0,346,636)"/><rect x="335" y="647" width="22" height="22" transform="rotate(0,346,658)"/><rect x="335" y="691" width="22" height="22" transform="rotate(0,346,702)"/><rect x="335" y="713" width="22" height="22" transform="rotate(0,346,724)"/><rect x="335" y="735" width="22" height="22" transform="rotate(0,346,746)"/><rect x="357" y="361" width="22" height="22" transform="rotate(0,368,372)"/><rect x="357" y="383" width="22" height="22" transform="rotate(0,368,394)"/><rect x="357" y="427" width="22" height="22" transform="rotate(0,368,438)"/><rect x="357" y="471" width="22" height="22" transform="rotate(0,368,482)"/><rect x="357" y="493" width="22" height="22" transform="rotate(0,368,504)"/><rect x="357" y="537" width="22" height="22" transform="rotate(0,368,548)"/><rect x="357" y="559" width="22" height="22" transform="rotate(0,368,570)"/><rect x="357" y="581" width="22" height="22" transform="rotate(0,368,592)"/><rect x="357" y="603" width="22" height="22" transform="rotate(0,368,614)"/><rect x="357" y="669" width="22" height="22" transform="rotate(0,368,680)"/><rect x="357" y="735" width="22" height="22" transform="rotate(0,368,746)"/><rect x="357" y="779" width="22" height="22" transform="rotate(0,368,790)"/><rect x="357" y="823" width="22" height="22" transform="rotate(0,368,834)"/><rect x="357" y="867" width="22" height="22" transform="rotate(0,368,878)"/><rect x="357" y="889" width="22" height="22" transform="rotate(0,368,900)"/><rect x="357" y="911" width="22" height="22" transform="rotate(0,368,922)"/><rect x="357" y="933" width="22" height="22" transform="rotate(0,368,944)"/><rect x="357" y="955" width="22" height="22" transform="rotate(0,368,966)"/><rect x="379" y="339" width="22" height="22" transform="rotate(0,390,350)"/><rect x="379" y="405" width="22" height="22" transform="rotate(0,390,416)"/><rect x="379" y="427" width="22" height="22" transform="rotate(0,390,438)"/><rect x="379" y="449" width="22" height="22" transform="rotate(0,390,460)"/><rect x="379" y="493" width="22" height="22" transform="rotate(0,390,504)"/><rect x="379" y="603" width="22" height="22" transform="rotate(0,390,614)"/><rect x="379" y="735" width="22" height="22" transform="rotate(0,390,746)"/><rect x="379" y="757" width="22" height="22" transform="rotate(0,390,768)"/><rect x="379" y="889" width="22" height="22" transform="rotate(0,390,900)"/><rect x="379" y="911" width="22" height="22" transform="rotate(0,390,922)"/><rect x="379" y="955" width="22" height="22" transform="rotate(0,390,966)"/><rect x="401" y="383" width="22" height="22" transform="rotate(0,412,394)"/><rect x="401" y="449" width="22" height="22" transform="rotate(0,412,460)"/><rect x="401" y="471" width="22" height="22" transform="rotate(0,412,482)"/><rect x="401" y="493" width="22" height="22" transform="rotate(0,412,504)"/><rect x="401" y="537" width="22" height="22" transform="rotate(0,412,548)"/><rect x="401" y="625" width="22" height="22" transform="rotate(0,412,636)"/><rect x="401" y="735" width="22" height="22" transform="rotate(0,412,746)"/><rect x="401" y="779" width="22" height="22" transform="rotate(0,412,790)"/><rect x="401" y="867" width="22" height="22" transform="rotate(0,412,878)"/><rect x="401" y="889" width="22" height="22" transform="rotate(0,412,900)"/><rect x="401" y="911" width="22" height="22" transform="rotate(0,412,922)"/><rect x="401" y="933" width="22" height="22" transform="rotate(0,412,944)"/><rect x="401" y="955" width="22" height="22" transform="rotate(0,412,966)"/><rect x="423" y="339" width="22" height="22" transform="rotate(0,434,350)"/><rect x="423" y="427" width="22" height="22" transform="rotate(0,434,438)"/><rect x="423" y="515" width="22" height="22" transform="rotate(0,434,526)"/><rect x="423" y="537" width="22" height="22" transform="rotate(0,434,548)"/><rect x="423" y="603" width="22" height="22" transform="rotate(0,434,614)"/><rect x="423" y="713" width="22" height="22" transform="rotate(0,434,724)"/><rect x="423" y="735" width="22" height="22" transform="rotate(0,434,746)"/><rect x="423" y="779" width="22" height="22" transform="rotate(0,434,790)"/><rect x="423" y="801" width="22" height="22" transform="rotate(0,434,812)"/><rect x="423" y="823" width="22" height="22" transform="rotate(0,434,834)"/><rect x="423" y="933" width="22" height="22" transform="rotate(0,434,944)"/><rect x="445" y="383" width="22" height="22" transform="rotate(0,456,394)"/><rect x="445" y="471" width="22" height="22" transform="rotate(0,456,482)"/><rect x="445" y="493" width="22" height="22" transform="rotate(0,456,504)"/><rect x="445" y="515" width="22" height="22" transform="rotate(0,456,526)"/><rect x="445" y="559" width="22" height="22" transform="rotate(0,456,570)"/><rect x="445" y="581" width="22" height="22" transform="rotate(0,456,592)"/><rect x="445" y="669" width="22" height="22" transform="rotate(0,456,680)"/><rect x="445" y="713" width="22" height="22" transform="rotate(0,456,724)"/><rect x="445" y="735" width="22" height="22" transform="rotate(0,456,746)"/><rect x="445" y="757" width="22" height="22" transform="rotate(0,456,768)"/><rect x="445" y="823" width="22" height="22" transform="rotate(0,456,834)"/><rect x="445" y="845" width="22" height="22" transform="rotate(0,456,856)"/><rect x="445" y="889" width="22" height="22" transform="rotate(0,456,900)"/><rect x="445" y="911" width="22" height="22" transform="rotate(0,456,922)"/><rect x="467" y="405" width="22" height="22" transform="rotate(0,478,416)"/><rect x="467" y="427" width="22" height="22" transform="rotate(0,478,438)"/><rect x="467" y="493" width="22" height="22" transform="rotate(0,478,504)"/><rect x="467" y="537" width="22" height="22" transform="rotate(0,478,548)"/><rect x="467" y="603" width="22" height="22" transform="rotate(0,478,614)"/><rect x="467" y="647" width="22" height="22" transform="rotate(0,478,658)"/><rect x="467" y="779" width="22" height="22" transform="rotate(0,478,790)"/><rect x="467" y="801" width="22" height="22" transform="rotate(0,478,812)"/><rect x="467" y="823" width="22" height="22" transform="rotate(0,478,834)"/><rect x="467" y="845" width="22" height="22" transform="rotate(0,478,856)"/><rect x="467" y="933" width="22" height="22" transform="rotate(0,478,944)"/><rect x="489" y="339" width="22" height="22" transform="rotate(0,500,350)"/><rect x="489" y="361" width="22" height="22" transform="rotate(0,500,372)"/><rect x="489" y="383" width="22" height="22" transform="rotate(0,500,394)"/><rect x="489" y="427" width="22" height="22" transform="rotate(0,500,438)"/><rect x="489" y="471" width="22" height="22" transform="rotate(0,500,482)"/><rect x="489" y="493" width="22" height="22" transform="rotate(0,500,504)"/><rect x="489" y="515" width="22" height="22" transform="rotate(0,500,526)"/><rect x="489" y="603" width="22" height="22" transform="rotate(0,500,614)"/><rect x="489" y="669" width="22" height="22" transform="rotate(0,500,680)"/><rect x="489" y="691" width="22" height="22" transform="rotate(0,500,702)"/><rect x="489" y="713" width="22" height="22" transform="rotate(0,500,724)"/><rect x="489" y="823" width="22" height="22" transform="rotate(0,500,834)"/><rect x="489" y="845" width="22" height="22" transform="rotate(0,500,856)"/><rect x="489" y="911" width="22" height="22" transform="rotate(0,500,922)"/><rect x="489" y="933" width="22" height="22" transform="rotate(0,500,944)"/><rect x="489" y="955" width="22" height="22" transform="rotate(0,500,966)"/><rect x="511" y="361" width="22" height="22" transform="rotate(0,522,372)"/><rect x="511" y="449" width="22" height="22" transform="rotate(0,522,460)"/><rect x="511" y="537" width="22" height="22" transform="rotate(0,522,548)"/><rect x="511" y="559" width="22" height="22" transform="rotate(0,522,570)"/><rect x="511" y="581" width="22" height="22" transform="rotate(0,522,592)"/><rect x="511" y="603" width="22" height="22" transform="rotate(0,522,614)"/><rect x="511" y="691" width="22" height="22" transform="rotate(0,522,702)"/><rect x="511" y="757" width="22" height="22" transform="rotate(0,522,768)"/><rect x="511" y="845" width="22" height="22" transform="rotate(0,522,856)"/><rect x="511" y="933" width="22" height="22" transform="rotate(0,522,944)"/><rect x="511" y="955" width="22" height="22" transform="rotate(0,522,966)"/><rect x="533" y="361" width="22" height="22" transform="rotate(0,544,372)"/><rect x="533" y="383" width="22" height="22" transform="rotate(0,544,394)"/><rect x="533" y="471" width="22" height="22" transform="rotate(0,544,482)"/><rect x="533" y="559" width="22" height="22" transform="rotate(0,544,570)"/><rect x="533" y="581" width="22" height="22" transform="rotate(0,544,592)"/><rect x="533" y="603" width="22" height="22" transform="rotate(0,544,614)"/><rect x="533" y="625" width="22" height="22" transform="rotate(0,544,636)"/><rect x="533" y="647" width="22" height="22" transform="rotate(0,544,658)"/><rect x="533" y="779" width="22" height="22" transform="rotate(0,544,790)"/><rect x="533" y="823" width="22" height="22" transform="rotate(0,544,834)"/><rect x="533" y="845" width="22" height="22" transform="rotate(0,544,856)"/><rect x="533" y="889" width="22" height="22" transform="rotate(0,544,900)"/><rect x="555" y="493" width="22" height="22" transform="rotate(0,566,504)"/><rect x="555" y="515" width="22" height="22" transform="rotate(0,566,526)"/><rect x="555" y="537" width="22" height="22" transform="rotate(0,566,548)"/><rect x="555" y="603" width="22" height="22" transform="rotate(0,566,614)"/><rect x="555" y="647" width="22" height="22" transform="rotate(0,566,658)"/><rect x="555" y="669" width="22" height="22" transform="rotate(0,566,680)"/><rect x="555" y="779" width="22" height="22" transform="rotate(0,566,790)"/><rect x="555" y="823" width="22" height="22" transform="rotate(0,566,834)"/><rect x="555" y="845" width="22" height="22" transform="rotate(0,566,856)"/><rect x="555" y="933" width="22" height="22" transform="rotate(0,566,944)"/><rect x="555" y="955" width="22" height="22" transform="rotate(0,566,966)"/><rect x="577" y="339" width="22" height="22" transform="rotate(0,588,350)"/><rect x="577" y="427" width="22" height="22" transform="rotate(0,588,438)"/><rect x="577" y="471" width="22" height="22" transform="rotate(0,588,482)"/><rect x="577" y="493" width="22" height="22" transform="rotate(0,588,504)"/><rect x="577" y="515" width="22" height="22" transform="rotate(0,588,526)"/><rect x="577" y="603" width="22" height="22" transform="rotate(0,588,614)"/><rect x="577" y="625" width="22" height="22" transform="rotate(0,588,636)"/><rect x="577" y="713" width="22" height="22" transform="rotate(0,588,724)"/><rect x="577" y="801" width="22" height="22" transform="rotate(0,588,812)"/><rect x="577" y="845" width="22" height="22" transform="rotate(0,588,856)"/><rect x="577" y="867" width="22" height="22" transform="rotate(0,588,878)"/><rect x="577" y="889" width="22" height="22" transform="rotate(0,588,900)"/><rect x="577" y="911" width="22" height="22" transform="rotate(0,588,922)"/><rect x="577" y="933" width="22" height="22" transform="rotate(0,588,944)"/><rect x="577" y="955" width="22" height="22" transform="rotate(0,588,966)"/><rect x="599" y="361" width="22" height="22" transform="rotate(0,610,372)"/><rect x="599" y="383" width="22" height="22" transform="rotate(0,610,394)"/><rect x="599" y="405" width="22" height="22" transform="rotate(0,610,416)"/><rect x="599" y="493" width="22" height="22" transform="rotate(0,610,504)"/><rect x="599" y="515" width="22" height="22" transform="rotate(0,610,526)"/><rect x="599" y="581" width="22" height="22" transform="rotate(0,610,592)"/><rect x="599" y="647" width="22" height="22" transform="rotate(0,610,658)"/><rect x="599" y="669" width="22" height="22" transform="rotate(0,610,680)"/><rect x="599" y="713" width="22" height="22" transform="rotate(0,610,724)"/><rect x="599" y="757" width="22" height="22" transform="rotate(0,610,768)"/><rect x="599" y="779" width="22" height="22" transform="rotate(0,610,790)"/><rect x="599" y="823" width="22" height="22" transform="rotate(0,610,834)"/><rect x="599" y="845" width="22" height="22" transform="rotate(0,610,856)"/><rect x="599" y="933" width="22" height="22" transform="rotate(0,610,944)"/><rect x="599" y="955" width="22" height="22" transform="rotate(0,610,966)"/><rect x="621" y="339" width="22" height="22" transform="rotate(0,632,350)"/><rect x="621" y="471" width="22" height="22" transform="rotate(0,632,482)"/><rect x="621" y="515" width="22" height="22" transform="rotate(0,632,526)"/><rect x="621" y="559" width="22" height="22" transform="rotate(0,632,570)"/><rect x="621" y="603" width="22" height="22" transform="rotate(0,632,614)"/><rect x="621" y="691" width="22" height="22" transform="rotate(0,632,702)"/><rect x="621" y="713" width="22" height="22" transform="rotate(0,632,724)"/><rect x="621" y="757" width="22" height="22" transform="rotate(0,632,768)"/><rect x="621" y="779" width="22" height="22" transform="rotate(0,632,790)"/><rect x="621" y="801" width="22" height="22" transform="rotate(0,632,812)"/><rect x="621" y="823" width="22" height="22" transform="rotate(0,632,834)"/><rect x="621" y="845" width="22" height="22" transform="rotate(0,632,856)"/><rect x="621" y="867" width="22" height="22" transform="rotate(0,632,878)"/><rect x="643" y="515" width="22" height="22" transform="rotate(0,654,526)"/><rect x="643" y="603" width="22" height="22" transform="rotate(0,654,614)"/><rect x="643" y="625" width="22" height="22" transform="rotate(0,654,636)"/><rect x="643" y="647" width="22" height="22" transform="rotate(0,654,658)"/><rect x="643" y="713" width="22" height="22" transform="rotate(0,654,724)"/><rect x="643" y="779" width="22" height="22" transform="rotate(0,654,790)"/><rect x="643" y="867" width="22" height="22" transform="rotate(0,654,878)"/><rect x="665" y="515" width="22" height="22" transform="rotate(0,676,526)"/><rect x="665" y="625" width="22" height="22" transform="rotate(0,676,636)"/><rect x="665" y="735" width="22" height="22" transform="rotate(0,676,746)"/><rect x="665" y="757" width="22" height="22" transform="rotate(0,676,768)"/><rect x="665" y="779" width="22" height="22" transform="rotate(0,676,790)"/><rect x="665" y="823" width="22" height="22" transform="rotate(0,676,834)"/><rect x="665" y="867" width="22" height="22" transform="rotate(0,676,878)"/><rect x="665" y="911" width="22" height="22" transform="rotate(0,676,922)"/><rect x="665" y="933" width="22" height="22" transform="rotate(0,676,944)"/><rect x="665" y="955" width="22" height="22" transform="rotate(0,676,966)"/><rect x="687" y="691" width="22" height="22" transform="rotate(0,698,702)"/><rect x="687" y="713" width="22" height="22" transform="rotate(0,698,724)"/><rect x="687" y="735" width="22" height="22" transform="rotate(0,698,746)"/><rect x="687" y="779" width="22" height="22" transform="rotate(0,698,790)"/><rect x="687" y="867" width="22" height="22" transform="rotate(0,698,878)"/><rect x="687" y="955" width="22" height="22" transform="rotate(0,698,966)"/><rect x="709" y="515" width="22" height="22" transform="rotate(0,720,526)"/><rect x="709" y="581" width="22" height="22" transform="rotate(0,720,592)"/><rect x="709" y="669" width="22" height="22" transform="rotate(0,720,680)"/><rect x="709" y="691" width="22" height="22" transform="rotate(0,720,702)"/><rect x="709" y="735" width="22" height="22" transform="rotate(0,720,746)"/><rect x="709" y="779" width="22" height="22" transform="rotate(0,720,790)"/><rect x="709" y="801" width="22" height="22" transform="rotate(0,720,812)"/><rect x="709" y="823" width="22" height="22" transform="rotate(0,720,834)"/><rect x="709" y="845" width="22" height="22" transform="rotate(0,720,856)"/><rect x="709" y="867" width="22" height="22" transform="rotate(0,720,878)"/><rect x="709" y="889" width="22" height="22" transform="rotate(0,720,900)"/><rect x="709" y="933" width="22" height="22" transform="rotate(0,720,944)"/><rect x="731" y="537" width="22" height="22" transform="rotate(0,742,548)"/><rect x="731" y="559" width="22" height="22" transform="rotate(0,742,570)"/><rect x="731" y="603" width="22" height="22" transform="rotate(0,742,614)"/><rect x="731" y="669" width="22" height="22" transform="rotate(0,742,680)"/><rect x="731" y="691" width="22" height="22" transform="rotate(0,742,702)"/><rect x="731" y="735" width="22" height="22" transform="rotate(0,742,746)"/><rect x="731" y="779" width="22" height="22" transform="rotate(0,742,790)"/><rect x="731" y="801" width="22" height="22" transform="rotate(0,742,812)"/><rect x="731" y="867" width="22" height="22" transform="rotate(0,742,878)"/><rect x="731" y="889" width="22" height="22" transform="rotate(0,742,900)"/><rect x="731" y="911" width="22" height="22" transform="rotate(0,742,922)"/><rect x="753" y="515" width="22" height="22" transform="rotate(0,764,526)"/><rect x="753" y="537" width="22" height="22" transform="rotate(0,764,548)"/><rect x="753" y="603" width="22" height="22" transform="rotate(0,764,614)"/><rect x="753" y="625" width="22" height="22" transform="rotate(0,764,636)"/><rect x="753" y="669" width="22" height="22" transform="rotate(0,764,680)"/><rect x="753" y="691" width="22" height="22" transform="rotate(0,764,702)"/><rect x="753" y="735" width="22" height="22" transform="rotate(0,764,746)"/><rect x="753" y="757" width="22" height="22" transform="rotate(0,764,768)"/><rect x="753" y="845" width="22" height="22" transform="rotate(0,764,856)"/><rect x="753" y="867" width="22" height="22" transform="rotate(0,764,878)"/><rect x="753" y="911" width="22" height="22" transform="rotate(0,764,922)"/><rect x="753" y="955" width="22" height="22" transform="rotate(0,764,966)"/><rect x="775" y="515" width="22" height="22" transform="rotate(0,786,526)"/><rect x="775" y="537" width="22" height="22" transform="rotate(0,786,548)"/><rect x="775" y="559" width="22" height="22" transform="rotate(0,786,570)"/><rect x="775" y="625" width="22" height="22" transform="rotate(0,786,636)"/><rect x="775" y="647" width="22" height="22" transform="rotate(0,786,658)"/><rect x="775" y="691" width="22" height="22" transform="rotate(0,786,702)"/><rect x="775" y="713" width="22" height="22" transform="rotate(0,786,724)"/><rect x="775" y="735" width="22" height="22" transform="rotate(0,786,746)"/><rect x="775" y="757" width="22" height="22" transform="rotate(0,786,768)"/><rect x="775" y="779" width="22" height="22" transform="rotate(0,786,790)"/><rect x="775" y="801" width="22" height="22" transform="rotate(0,786,812)"/><rect x="775" y="845" width="22" height="22" transform="rotate(0,786,856)"/><rect x="775" y="933" width="22" height="22" transform="rotate(0,786,944)"/><rect x="797" y="537" width="22" height="22" transform="rotate(0,808,548)"/><rect x="797" y="559" width="22" height="22" transform="rotate(0,808,570)"/><rect x="797" y="581" width="22" height="22" transform="rotate(0,808,592)"/><rect x="797" y="625" width="22" height="22" transform="rotate(0,808,636)"/><rect x="797" y="647" width="22" height="22" transform="rotate(0,808,658)"/><rect x="797" y="669" width="22" height="22" transform="rotate(0,808,680)"/><rect x="797" y="691" width="22" height="22" transform="rotate(0,808,702)"/><rect x="797" y="713" width="22" height="22" transform="rotate(0,808,724)"/><rect x="797" y="779" width="22" height="22" transform="rotate(0,808,790)"/><rect x="797" y="801" width="22" height="22" transform="rotate(0,808,812)"/><rect x="797" y="867" width="22" height="22" transform="rotate(0,808,878)"/><rect x="797" y="889" width="22" height="22" transform="rotate(0,808,900)"/><rect x="797" y="911" width="22" height="22" transform="rotate(0,808,922)"/><rect x="797" y="933" width="22" height="22" transform="rotate(0,808,944)"/><rect x="797" y="955" width="22" height="22" transform="rotate(0,808,966)"/></clipPath><clipPath id="clip-path-corners-square-color-0-0"><rect x="181" y="339" width="22" height="22" transform="rotate(0,192,350)"/><rect x="181" y="361" width="22" height="22" transform="rotate(0,192,372)"/><rect x="181" y="383" width="22" height="22" transform="rotate(0,192,394)"/><rect x="181" y="405" width="22" height="22" transform="rotate(0,192,416)"/><rect x="181" y="427" width="22" height="22" transform="rotate(0,192,438)"/><rect x="181" y="449" width="22" height="22" transform="rotate(0,192,460)"/><rect x="181" y="471" width="22" height="22" transform="rotate(0,192,482)"/><rect x="203" y="339" width="22" height="22" transform="rotate(0,214,350)"/><rect x="203" y="471" width="22" height="22" transform="rotate(0,214,482)"/><rect x="225" y="339" width="22" height="22" transform="rotate(0,236,350)"/><rect x="225" y="471" width="22" height="22" transform="rotate(0,236,482)"/><rect x="247" y="339" width="22" height="22" transform="rotate(0,258,350)"/><rect x="247" y="471" width="22" height="22" transform="rotate(0,258,482)"/><rect x="269" y="339" width="22" height="22" transform="rotate(0,280,350)"/><rect x="269" y="471" width="22" height="22" transform="rotate(0,280,482)"/><rect x="291" y="339" width="22" height="22" transform="rotate(0,302,350)"/><rect x="291" y="471" width="22" height="22" transform="rotate(0,302,482)"/><rect x="313" y="339" width="22" height="22" transform="rotate(0,324,350)"/><rect x="313" y="361" width="22" height="22" transform="rotate(0,324,372)"/><rect x="313" y="383" width="22" height="22" transform="rotate(0,324,394)"/><rect x="313" y="405" width="22" height="22" transform="rotate(0,324,416)"/><rect x="313" y="427" width="22" height="22" transform="rotate(0,324,438)"/><rect x="313" y="449" width="22" height="22" transform="rotate(0,324,460)"/><rect x="313" y="471" width="22" height="22" transform="rotate(0,324,482)"/></clipPath><clipPath id="clip-path-corners-dot-color-0-0"><rect x="225" y="383" width="22" height="22" transform="rotate(0,236,394)"/><rect x="225" y="405" width="22" height="22" transform="rotate(0,236,416)"/><rect x="225" y="427" width="22" height="22" transform="rotate(0,236,438)"/><rect x="247" y="383" width="22" height="22" transform="rotate(0,258,394)"/><rect x="247" y="405" width="22" height="22" transform="rotate(0,258,416)"/><rect x="247" y="427" width="22" height="22" transform="rotate(0,258,438)"/><rect x="269" y="383" width="22" height="22" transform="rotate(0,280,394)"/><rect x="269" y="405" width="22" height="22" transform="rotate(0,280,416)"/><rect x="269" y="427" width="22" height="22" transform="rotate(0,280,438)"/></clipPath><clipPath id="clip-path-corners-square-color-1-0"><rect x="665" y="339" width="22" height="22" transform="rotate(0,676,350)"/><rect x="665" y="361" width="22" height="22" transform="rotate(0,676,372)"/><rect x="665" y="383" width="22" height="22" transform="rotate(0,676,394)"/><rect x="665" y="405" width="22" height="22" transform="rotate(0,676,416)"/><rect x="665" y="427" width="22" height="22" transform="rotate(0,676,438)"/><rect x="665" y="449" width="22" height="22" transform="rotate(0,676,460)"/><rect x="665" y="471" width="22" height="22" transform="rotate(0,676,482)"/><rect x="687" y="339" width="22" height="22" transform="rotate(0,698,350)"/><rect x="687" y="471" width="22" height="22" transform="rotate(0,698,482)"/><rect x="709" y="339" width="22" height="22" transform="rotate(0,720,350)"/><rect x="709" y="471" width="22" height="22" transform="rotate(0,720,482)"/><rect x="731" y="339" width="22" height="22" transform="rotate(0,742,350)"/><rect x="731" y="471" width="22" height="22" transform="rotate(0,742,482)"/><rect x="753" y="339" width="22" height="22" transform="rotate(0,764,350)"/><rect x="753" y="471" width="22" height="22" transform="rotate(0,764,482)"/><rect x="775" y="339" width="22" height="22" transform="rotate(0,786,350)"/><rect x="775" y="471" width="22" height="22" transform="rotate(0,786,482)"/><rect x="797" y="339" width="22" height="22" transform="rotate(0,808,350)"/><rect x="797" y="361" width="22" height="22" transform="rotate(0,808,372)"/><rect x="797" y="383" width="22" height="22" transform="rotate(0,808,394)"/><rect x="797" y="405" width="22" height="22" transform="rotate(0,808,416)"/><rect x="797" y="427" width="22" height="22" transform="rotate(0,808,438)"/><rect x="797" y="449" width="22" height="22" transform="rotate(0,808,460)"/><rect x="797" y="471" width="22" height="22" transform="rotate(0,808,482)"/></clipPath><clipPath id="clip-path-corners-dot-color-1-0"><rect x="709" y="383" width="22" height="22" transform="rotate(0,720,394)"/><rect x="709" y="405" width="22" height="22" transform="rotate(0,720,416)"/><rect x="709" y="427" width="22" height="22" transform="rotate(0,720,438)"/><rect x="731" y="383" width="22" height="22" transform="rotate(0,742,394)"/><rect x="731" y="405" width="22" height="22" transform="rotate(0,742,416)"/><rect x="731" y="427" width="22" height="22" transform="rotate(0,742,438)"/><rect x="753" y="383" width="22" height="22" transform="rotate(0,764,394)"/><rect x="753" y="405" width="22" height="22" transform="rotate(0,764,416)"/><rect x="753" y="427" width="22" height="22" transform="rotate(0,764,438)"/></clipPath><clipPath id="clip-path-corners-square-color-0-1"><rect x="181" y="823" width="22" height="22" transform="rotate(0,192,834)"/><rect x="181" y="845" width="22" height="22" transform="rotate(0,192,856)"/><rect x="181" y="867" width="22" height="22" transform="rotate(0,192,878)"/><rect x="181" y="889" width="22" height="22" transform="rotate(0,192,900)"/><rect x="181" y="911" width="22" height="22" transform="rotate(0,192,922)"/><rect x="181" y="933" width="22" height="22" transform="rotate(0,192,944)"/><rect x="181" y="955" width="22" height="22" transform="rotate(0,192,966)"/><rect x="203" y="823" width="22" height="22" transform="rotate(0,214,834)"/><rect x="203" y="955" width="22" height="22" transform="rotate(0,214,966)"/><rect x="225" y="823" width="22" height="22" transform="rotate(0,236,834)"/><rect x="225" y="955" width="22" height="22" transform="rotate(0,236,966)"/><rect x="247" y="823" width="22" height="22" transform="rotate(0,258,834)"/><rect x="247" y="955" width="22" height="22" transform="rotate(0,258,966)"/><rect x="269" y="823" width="22" height="22" transform="rotate(0,280,834)"/><rect x="269" y="955" width="22" height="22" transform="rotate(0,280,966)"/><rect x="291" y="823" width="22" height="22" transform="rotate(0,302,834)"/><rect x="291" y="955" width="22" height="22" transform="rotate(0,302,966)"/><rect x="313" y="823" width="22" height="22" transform="rotate(0,324,834)"/><rect x="313" y="845" width="22" height="22" transform="rotate(0,324,856)"/><rect x="313" y="867" width="22" height="22" transform="rotate(0,324,878)"/><rect x="313" y="889" width="22" height="22" transform="rotate(0,324,900)"/><rect x="313" y="911" width="22" height="22" transform="rotate(0,324,922)"/><rect x="313" y="933" width="22" height="22" transform="rotate(0,324,944)"/><rect x="313" y="955" width="22" height="22" transform="rotate(0,324,966)"/></clipPath><clipPath id="clip-path-corners-dot-color-0-1"><rect x="225" y="867" width="22" height="22" transform="rotate(0,236,878)"/><rect x="225" y="889" width="22" height="22" transform="rotate(0,236,900)"/><rect x="225" y="911" width="22" height="22" transform="rotate(0,236,922)"/><rect x="247" y="867" width="22" height="22" transform="rotate(0,258,878)"/><rect x="247" y="889" width="22" height="22" transform="rotate(0,258,900)"/><rect x="247" y="911" width="22" height="22" transform="rotate(0,258,922)"/><rect x="269" y="867" width="22" height="22" transform="rotate(0,280,878)"/><rect x="269" y="889" width="22" height="22" transform="rotate(0,280,900)"/><rect x="269" y="911" width="22" height="22" transform="rotate(0,280,922)"/></clipPath></defs><defs/><path fill="#000000" d="M968.07,240.07c0-38.68-31.36-70.04-70.04-70.04H101.97c-38.68,0-70.04,31.36-70.04,70.04L0,1229.1 c0,38.68,31.36,70.04,70.04,70.04h859.91c38.68,0,70.04-31.36,70.04-70.04L968.07,240.07z M73.43,240.07 c0-15.74,12.8-28.54,28.54-28.54h796.05c15.74,0,28.54,12.8,28.54,28.54v824.59H73.43V240.07z"/>
			<polygon fill="#000000" points="352.81,0.85 273.07,79.83 273.07,247.82 352.81,247.82"/>
			<polygon fill="#000000" points="647.19,0.85 726.93,79.83 726.93,247.82 647.19,247.82"/>
			<rect fill="#595959" x="460.13" y="-106.46" transform="matrix(6.123234e-17 -1 1 6.123234e-17 459.272 540.728)" width="79.75" height="294.37"/>
			<text fill="#ffffff" font-size="100" x="50%" y="1197" dominant-baseline="middle" text-anchor="middle" font-family="sans-serif" font-weight="600">Scan me!</text><rect x="138" y="296" height="725" width="724" clip-path="url('#clip-path-background-color')" fill="#ffffff"/><rect x="181" y="339" height="638" width="638" clip-path="url('#clip-path-dot-color')" fill="#000000"/><rect x="181" y="339" height="154" width="154" clip-path="url('#clip-path-corners-square-color-0-0')" fill="#000000"/><rect x="225" y="383" height="66" width="66" clip-path="url('#clip-path-corners-dot-color-0-0')" fill="#000000"/><rect x="665" y="339" height="154" width="154" clip-path="url('#clip-path-corners-square-color-1-0')" fill="#000000"/><rect x="709" y="383" height="66" width="66" clip-path="url('#clip-path-corners-dot-color-1-0')" fill="#000000"/><rect x="181" y="823" height="154" width="154" clip-path="url('#clip-path-corners-square-color-0-1')" fill="#000000"/><rect x="225" y="867" height="66" width="66" clip-path="url('#clip-path-corners-dot-color-0-1')" fill="#000000"/></svg>